<COLLADA xmlns="http://www.collada.org/2005/11/COLLADASchema" version="1.4.1">
  <asset>
    <created>2026-09-13T14:37:41.113217</created>
    <modified>2026-09-13T14:37:41.113218</modified>
    <up_axis>Y_UP</up_axis>
  </asset>
  <library_effects>
    <effect id="109bf58844124b1e974a10a4cb6dbc2d" name="109bf58844124b1e974a10a4cb6dbc2d">
      <profile_COMMON>
        <technique sid="common">
          <phong>
            <ambient>
              <color>0.0 0.0 0.0 1.0</color>
            </ambient>
            <diffuse>
              <color>1.0 0.0 0.0 1.0</color>
            </diffuse>
            <specular>
              <color>1.0 1.0 1.0 1.0</color>
            </specular>
            <shininess>
              <float>0.0</float>
            </shininess>
            <reflective>
              <color>0.0 0.0 0.0 1.0</color>
            </reflective>
            <reflectivity>
              <float>0.0</float>
            </reflectivity>
            <transparent>
              <color>0.0 0.0 0.0 1.0</color>
            </transparent>
            <transparency>
              <float>1.0</float>
            </transparency>
          </phong>
        </technique>
        <extra>
          <technique profile="GOOGLEEARTH">
            <double_sided>0</double_sided>
          </technique>
        </extra>
      </profile_COMMON>
    </effect>
    <effect id="738da5d2155043a8a7392dd3fddce4dc" name="738da5d2155043a8a7392dd3fddce4dc">
      <profile_COMMON>
        <technique sid="common">
          <phong>
            <ambient>
              <color>0.0 0.0 0.0 1.0</color>
            </ambient>
            <diffuse>
              <color>0.0 0.0 1.0 1.0</color>
            </diffuse>
            <specular>
              <color>1.0 1.0 1.0 1.0</color>
            </specular>
            <shininess>
              <float>0.0</float>
            </shininess>
            <reflective>
              <color>0.0 0.0 0.0 1.0</color>
            </reflective>
            <reflectivity>
              <float>0.0</float>
            </reflectivity>
            <transparent>
              <color>0.0 0.0 0.0 1.0</color>
            </transparent>
            <transparency>
              <float>1.0</float>
            </transparency>
          </phong>
        </technique>
        <extra>
          <technique profile="GOOGLEEARTH">
            <double_sided>0</double_sided>
          </technique>
        </extra>
      </profile_COMMON>
    </effect>
  </library_effects>
  <library_geometries>
    <geometry id="e575b61adfde4fa194faeff69d5ae8d9" name="5610d55012724b18ad7166ebfa8044f1">
      <mesh>
        <source id="verts-array">
          <float_array count="24" id="verts-array-array">-0.05 -0.05 -0.05 -0.05 -0.05 0.05 -0.05 0.05 -0.05 -0.05 0.05 0.05 0.05 -0.05 -0.05 0.05 -0.05 0.05 0.05 0.05 -0.05 0.05 0.05 0.05</float_array>
          <technique_common>
            <accessor count="8" source="#verts-array-array" stride="3">
              <param type="float" name="X"/>
              <param type="float" name="Y"/>
              <param type="float" name="Z"/>
            </accessor>
          </technique_common>
        </source>
        <source id="normals-array">
          <float_array count="24" id="normals-array-array">-0.5773503 -0.5773503 -0.5773503 -0.5773503 -0.5773503 0.5773503 -0.5773503 0.5773503 -0.5773503 -0.5773503 0.5773503 0.5773503 0.5773503 -0.5773503 -0.5773503 0.5773503 -0.5773503 0.5773503 0.5773503 0.5773503 -0.5773503 0.5773503 0.5773503 0.5773503</float_array>
          <technique_common>
            <accessor count="8" source="#normals-array-array" stride="3">
              <param type="float" name="X"/>
              <param type="float" name="Y"/>
              <param type="float" name="Z"/>
            </accessor>
          </technique_common>
        </source>
        <vertices id="verts-array-vertices">
          <input semantic="POSITION" source="#verts-array"/>
        </vertices>
        <triangles count="12" material="material0">
          <input offset="0" semantic="VERTEX" source="#verts-array-vertices"/>
          <input offset="1" semantic="NORMAL" source="#normals-array"/>
          <p>1 1 3 3 0 0 4 4 1 1 0 0 0 0 3 3 2 2 2 2 4 4 0 0 1 1 7 7 3 3 5 5 1 1 4 4 5 5 7 7 1 1 3 3 7 7 2 2 6 6 4 4 2 2 2 2 7 7 6 6 6 6 5 5 4 4 7 7 5 5 6 6</p>
        </triangles>
      </mesh>
    </geometry>
    <geometry id="47fd062b85d046f182fc97614cdb4010" name="c3e60dc69d5d4041acd172db982bc7b7">
      <mesh>
        <source id="verts-array">
          <float_array count="24" id="verts-array-array">0.15 -0.05 -0.05 0.15 -0.05 0.05 0.15 0.05 -0.05 0.15 0.05 0.05 0.25 -0.05 -0.05 0.25 -0.05 0.05 0.25 0.05 -0.05 0.25 0.05 0.05</float_array>
          <technique_common>
            <accessor count="8" source="#verts-array-array" stride="3">
              <param type="float" name="X"/>
              <param type="float" name="Y"/>
              <param type="float" name="Z"/>
            </accessor>
          </technique_common>
        </source>
        <source id="normals-array">
          <float_array count="24" id="normals-array-array">-0.5773503 -0.5773503 -0.5773503 -0.5773503 -0.5773503 0.5773503 -0.5773503 0.5773503 -0.5773503 -0.5773503 0.5773503 0.5773503 0.5773503 -0.5773503 -0.5773503 0.5773503 -0.5773503 0.5773503 0.5773503 0.5773503 -0.5773503 0.5773503 0.5773503 0.5773503</float_array>
          <technique_common>
            <accessor count="8" source="#normals-array-array" stride="3">
              <param type="float" name="X"/>
              <param type="float" name="Y"/>
              <param type="float" name="Z"/>
            </accessor>
          </technique_common>
        </source>
        <vertices id="verts-array-vertices">
          <input semantic="POSITION" source="#verts-array"/>
        </vertices>
        <triangles count="12" material="material1">
          <input offset="0" semantic="VERTEX" source="#verts-array-vertices"/>
          <input offset="1" semantic="NORMAL" source="#normals-array"/>
          <p>1 1 3 3 0 0 4 4 1 1 0 0 0 0 3 3 2 2 2 2 4 4 0 0 1 1 7 7 3 3 5 5 1 1 4 4 5 5 7 7 1 1 3 3 7 7 2 2 6 6 4 4 2 2 2 2 7 7 6 6 6 6 5 5 4 4 7 7 5 5 6 6</p>
        </triangles>
      </mesh>
    </geometry>
  </library_geometries>
  <library_materials>
    <material id="a102cbcd8d24419f87cd457b72766428" name="pbrmaterial">
      <instance_effect url="#109bf58844124b1e974a10a4cb6dbc2d"/>
    </material>
    <material id="14d172e9786a4b48990a634e28a9129d" name="pbrmaterial">
      <instance_effect url="#738da5d2155043a8a7392dd3fddce4dc"/>
    </material>
  </library_materials>
  <library_visual_scenes>
    <visual_scene id="scene">
      <node id="node0" name="node0">
        <instance_geometry url="#e575b61adfde4fa194faeff69d5ae8d9">
          <bind_material>
            <technique_common>
              <instance_material symbol="material0" target="#a102cbcd8d24419f87cd457b72766428"/>
            </technique_common>
          </bind_material>
        </instance_geometry>
      </node>
      <node id="node1" name="node1">
        <instance_geometry url="#47fd062b85d046f182fc97614cdb4010">
          <bind_material>
            <technique_common>
              <instance_material symbol="material1" target="#14d172e9786a4b48990a634e28a9129d"/>
            </technique_common>
          </bind_material>
        </instance_geometry>
      </node>
    </visual_scene>
  </library_visual_scenes>
  <scene>
    <instance_visual_scene url="#scene"/>
  </scene>
</COLLADA>
